<svg width="100" height="72" viewBox="0 0 100 72" fill="none" xmlns="http://www.w3.org/2000/svg">
<g clip-path="url(#clip0_3_16)">
<path d="M11.0918 47.8825H14.6697V59.3185C14.6697 63.8387 11.4743 66.6829 7.32267 66.6829C3.17107 66.6829 0 63.8282 0 59.3185V47.8825H3.57789V59.3568C3.57789 61.7663 5.19472 63.1815 7.32267 63.1815C9.45063 63.1815 11.0918 61.7559 11.0918 59.3568V47.8825ZM23.8595 53.1711C22.4687 53.1711 20.9562 53.7691 20.1773 55.0904V53.5083H16.8324V66.2691H20.2816V58.9291C20.2816 57.4513 21.1648 56.283 22.6669 56.283C24.3289 56.283 25.0278 57.3992 25.0278 58.8248V66.2691H28.4771V58.2302C28.4771 55.4277 27.0236 53.1711 23.8595 53.1711ZM36.509 58.5396L34.614 58.1502C33.8943 58.0042 33.4458 57.6321 33.4458 57.0097C33.4458 56.283 34.096 55.7406 35.0035 55.7406C36.2761 55.7406 36.7803 56.3978 36.9054 57.1662H39.8783C39.854 55.4277 38.4666 53.1224 35.0556 53.1224C32.3053 53.1224 30.2816 55.0139 30.2816 57.2949C30.2816 59.0855 31.3978 60.5633 33.863 61.1196L35.6259 61.509C36.6134 61.7177 37.0167 62.1836 37.0167 62.7538C37.0167 63.4284 36.3908 64.0264 35.2503 64.0264C33.8595 64.0264 33.1259 63.2441 32.952 62.3366H29.8783C30.0487 64.242 31.4325 66.669 35.2677 66.669C38.6127 66.669 40.3025 64.5445 40.3025 62.4687C40.3025 60.5876 39.0299 59.0577 36.509 58.5396ZM54.9687 59.8644C54.9687 63.7274 52.5591 66.5786 48.9534 66.5786C47.1905 66.5786 45.8936 65.8832 45.2712 65.0243V71.1961H41.8289V53.5083H45.1739V55.0904C45.7441 54.1064 47.1732 53.2232 49.089 53.2232C52.8234 53.2232 54.9757 56.0779 54.9757 59.8644H54.9687ZM51.5716 59.8887C51.5716 57.6321 50.1808 56.3108 48.411 56.3108C46.6412 56.3108 45.2191 57.6321 45.2191 59.8887C45.2191 62.1453 46.6446 63.4944 48.411 63.4944C50.1773 63.4944 51.5786 62.1697 51.5786 59.8887H51.5716ZM71.436 53.5083H74.781V66.2691H71.3317V64.7149C70.7441 65.7406 69.4159 66.5786 67.6495 66.5786C64.0473 66.5786 61.6342 63.7274 61.6342 59.8644C61.6342 56.0779 63.7865 53.2232 67.5209 53.2232C69.4402 53.2232 70.8275 54.1134 71.436 55.0904V53.5083ZM71.3839 59.8887C71.3839 57.6321 69.9583 56.3108 68.1954 56.3108C66.4325 56.3108 65.0313 57.6321 65.0313 59.8887C65.0313 62.1453 66.4221 63.4944 68.1954 63.4944C69.9687 63.4944 71.3908 62.1453 71.3908 59.8887H71.3839ZM56.5786 66.2691H60.0278V47.8825H56.5786V66.2691ZM95.2712 53.1745C94.0508 53.1745 92.653 53.5848 91.822 54.5654V47.8825H88.3727V66.2622H91.7942V58.7622C91.8707 57.3713 92.7295 56.2726 94.1794 56.2726C95.8414 56.2726 96.5403 57.3922 96.5403 58.8178V66.2587H99.9896V58.2198C100 55.4312 98.4979 53.1745 95.2712 53.1745ZM82.9972 58.5396L81.0988 58.1502C80.379 58.0042 79.9339 57.6321 79.9339 57.0097C79.9339 56.283 80.5841 55.7406 81.4917 55.7406C82.7643 55.7406 83.2684 56.3978 83.3901 57.1662H86.3665C86.3421 55.4277 84.9548 53.1224 81.5403 53.1224C78.7935 53.1224 76.7698 55.0139 76.7698 57.2949C76.7698 59.0855 77.886 60.5633 80.3477 61.1196L82.1141 61.509C83.0981 61.7177 83.5049 62.1836 83.5049 62.7538C83.5049 63.4284 82.8825 64.0264 81.7385 64.0264C80.3477 64.0264 79.6175 63.2441 79.4402 62.3366H76.3561C76.5264 64.242 77.9103 66.669 81.749 66.669C85.0939 66.669 86.7803 64.5445 86.7803 62.4687C86.7803 60.5876 85.5111 59.0577 82.9972 58.5396ZM71.5647 18.1328H58.6509V29.5549H43.484V18.1328H30.5702V40.9875H71.5647V18.1328ZM58.6509 0H43.484V11.4291H58.6509V0Z" fill="black"/>
</g>
<defs>
<clipPath id="clip0_3_16">
<rect width="100" height="71.1961" fill="white"/>
</clipPath>
</defs>
</svg>
